<svg width="33" height="31" viewBox="0 0 33 31" fill="none" xmlns="http://www.w3.org/2000/svg">
<path d="M27.5 0.770142H5.5C2.475 0.770142 0 3.24515 0 6.27016V20.0202C0 23.0452 2.475 25.5202 5.5 25.5202V29.6452C5.5 30.8827 7.0125 31.4327 7.8375 30.6077L12.925 25.5202H27.5C30.525 25.5202 33 23.0452 33 20.0202V6.27016C33 3.24515 30.525 0.770142 27.5 0.770142ZM19.25 17.2702H11C10.175 17.2702 9.625 16.7202 9.625 15.8952C9.625 15.0702 10.175 14.5202 11 14.5202H19.25C20.075 14.5202 20.625 15.0702 20.625 15.8952C20.625 16.7202 20.075 17.2702 19.25 17.2702ZM22 11.7702H11C10.175 11.7702 9.625 11.2202 9.625 10.3952C9.625 9.57016 10.175 9.02016 11 9.02016H22C22.825 9.02016 23.375 9.57016 23.375 10.3952C23.375 11.2202 22.825 11.7702 22 11.7702Z" fill="url(#paint0_linear_103_706)"/>
<defs>
<linearGradient id="paint0_linear_103_706" x1="16.5" y1="0.770142" x2="16.5" y2="31" gradientUnits="userSpaceOnUse">
<stop stop-color="#FD814A"/>
<stop offset="1" stop-color="#FC5C4C"/>
</linearGradient>
</defs>
</svg>
