<svg width="27" height="24" viewBox="0 0 27 24" fill="none" xmlns="http://www.w3.org/2000/svg">
<path d="M21.8328 -6.10352e-05H4.36655C1.96495 -6.10352e-05 0 1.96489 0 4.3665V15.2829C0 17.6845 1.96495 19.6495 4.36655 19.6495V22.9244C4.36655 23.9069 5.56736 24.3435 6.22234 23.6886L10.2614 19.6495H21.8328C24.2344 19.6495 26.1993 17.6845 26.1993 15.2829V4.3665C26.1993 1.96489 24.2344 -6.10352e-05 21.8328 -6.10352e-05ZM15.2829 13.0996H8.73311C8.07812 13.0996 7.64147 12.663 7.64147 12.008C7.64147 11.353 8.07812 10.9164 8.73311 10.9164H15.2829C15.9379 10.9164 16.3746 11.353 16.3746 12.008C16.3746 12.663 15.9379 13.0996 15.2829 13.0996ZM17.4662 8.73307H8.73311C8.07812 8.73307 7.64147 8.29641 7.64147 7.64143C7.64147 6.98644 8.07812 6.54979 8.73311 6.54979H17.4662C18.1212 6.54979 18.5579 6.98644 18.5579 7.64143C18.5579 8.29641 18.1212 8.73307 17.4662 8.73307Z" fill="#989A9D"/>
</svg>
