<svg width="218" height="196" viewBox="0 0 218 196" fill="none" xmlns="http://www.w3.org/2000/svg">
<path d="M210 8L91.1531 132L59 97.5385" stroke="url(#paint0_linear_45_2)" stroke-width="16" stroke-linecap="round" stroke-linejoin="round"/>
<path d="M188.451 103.752C188.451 112.73 176.209 120.075 173.761 129.053C171.312 138.03 176.209 151.089 171.312 157.618C165.599 164.964 151.724 164.147 144.379 169.044C137.034 173.941 133.769 187.816 124.791 191.081C116.63 193.529 106.02 184.551 96.2257 184.551C87.248 184.551 76.6379 193.529 67.6602 191.081C58.6825 188.632 55.4179 174.757 48.0725 169.044C40.727 163.331 26.8524 164.964 21.1393 157.618C16.2423 150.273 21.1393 137.214 18.6908 129.053C16.2423 120.891 4 113.546 4 103.752C4 94.7741 16.2423 87.4287 18.6908 78.451C21.1393 69.4733 16.2423 56.4148 21.1393 49.8855C27.6685 42.5401 41.5432 43.3563 48.8886 38.4593C56.234 33.5624 59.4987 19.6877 68.4764 16.4231C76.6379 13.9746 87.248 22.9523 97.0419 22.9523C106.02 22.9523 116.63 13.9746 125.607 16.4231C134.585 18.8716 137.85 32.7462 145.195 38.4593C152.54 44.1724 166.415 42.5401 172.128 49.8855C177.025 57.2309 172.128 70.2894 174.577 78.451C176.209 87.4287 188.451 94.7741 188.451 103.752Z" stroke="url(#paint1_linear_45_2)" stroke-width="8" stroke-miterlimit="10" stroke-linecap="round" stroke-linejoin="round"/>
<defs>
<linearGradient id="paint0_linear_45_2" x1="134.5" y1="8" x2="134.5" y2="132" gradientUnits="userSpaceOnUse">
<stop stop-color="#FD814A"/>
<stop offset="1" stop-color="#FC5C4C"/>
</linearGradient>
<linearGradient id="paint1_linear_45_2" x1="96.2257" y1="16" x2="96.2257" y2="191.504" gradientUnits="userSpaceOnUse">
<stop stop-color="#FD814A"/>
<stop offset="1" stop-color="#FC5C4C"/>
</linearGradient>
</defs>
</svg>
