<svg width="27" height="27" viewBox="0 0 27 27" fill="none" xmlns="http://www.w3.org/2000/svg">
<path d="M13.5 0C6.04406 0 0 6.04406 0 13.5C0 20.9559 6.04406 27 13.5 27C20.9559 27 27 20.9559 27 13.5C27 6.04406 20.9559 0 13.5 0ZM13.8971 20.565C13.6434 20.8384 13.2834 20.9751 12.8149 20.9751C12.3469 20.9751 11.9874 20.8417 11.7371 20.5746C11.4868 20.3074 11.3614 19.9333 11.3614 19.4524C11.3614 18.4568 11.8457 17.9595 12.8149 17.9595C13.2896 17.9595 13.6519 18.0894 13.9028 18.3499C14.1536 18.6103 14.2785 18.9776 14.2785 19.4524C14.2785 19.9204 14.1508 20.2911 13.8971 20.565ZM17.4229 10.9142C17.2778 11.3001 17.0584 11.6674 16.7647 12.0167C16.4711 12.366 15.966 12.8211 15.2477 13.3813C14.6346 13.8622 14.2239 14.2611 14.0164 14.5778C13.8409 14.8449 13.7447 15.1943 13.7177 15.6167C13.716 15.6257 13.7132 15.6285 13.7115 15.6375C13.5934 16.3029 12.8205 16.2984 12.8205 16.2984H12.4144C12.4144 16.2984 11.7422 16.1927 11.7675 15.6656C11.7675 14.9406 11.8991 14.3376 12.1629 13.8561C12.4267 13.3746 12.8886 12.8773 13.5472 12.3632C14.3319 11.7433 14.8371 11.2624 15.0643 10.9198C15.2916 10.5773 15.4057 10.1683 15.4057 9.69356C15.4057 9.14006 15.2212 8.71481 14.8522 8.41781C14.4832 8.12081 13.9522 7.97287 13.2604 7.97287C12.6337 7.97287 12.0538 8.06175 11.52 8.24006C11.2286 8.33737 10.9423 8.44763 10.6582 8.56631C10.6521 8.56856 10.6498 8.56744 10.6431 8.57025C9.98719 8.82394 9.68287 8.30813 9.68287 8.30813L9.42525 7.76869C9.42412 7.76531 9.135 7.10663 9.77962 6.81694C10.9288 6.29156 12.1444 6.02606 13.428 6.02606C14.7195 6.02606 15.7449 6.34275 16.5026 6.97556C17.2603 7.60838 17.6394 8.48194 17.6394 9.59569C17.64 10.089 17.5674 10.5289 17.4229 10.9142Z" fill="#F7598B"/>
</svg>
