<svg width="29" height="29" viewBox="0 0 29 29" fill="none" xmlns="http://www.w3.org/2000/svg">
<g filter="url(#filter0_d_46_435)">
<rect x="4" width="20.4844" height="20.4844" rx="10.2422" fill="url(#paint0_linear_46_435)"/>
</g>
<path d="M9.50278 6.13094C10.086 5.47974 10.8862 5.12109 11.7563 5.12109C12.4066 5.12109 13.0022 5.33276 13.5265 5.75017C13.7911 5.96087 14.0309 6.21864 14.2422 6.5195C14.4535 6.21873 14.6933 5.96087 14.958 5.75017C15.4822 5.33276 16.0778 5.12109 16.7282 5.12109C17.5982 5.12109 18.3985 5.47974 18.9817 6.13094C19.558 6.77453 19.8754 7.65377 19.8754 8.60681C19.8754 9.58772 19.5203 10.4856 18.758 11.4327C18.076 12.2798 17.0959 13.1397 15.9608 14.1355C15.5732 14.4756 15.1339 14.861 14.6778 15.2716C14.5572 15.3803 14.4026 15.4401 14.2422 15.4401C14.0819 15.4401 13.9272 15.3803 13.8069 15.2718C13.3507 14.8611 12.9111 14.4755 12.5234 14.1352C11.3885 13.1396 10.4083 12.2798 9.72635 11.4326C8.96401 10.4856 8.60901 9.58772 8.60901 8.60672C8.60901 7.65377 8.92644 6.77453 9.50278 6.13094Z" fill="white"/>
<defs>
<filter id="filter0_d_46_435" x="0" y="0" width="28.4844" height="28.4844" filterUnits="userSpaceOnUse" color-interpolation-filters="sRGB">
<feFlood flood-opacity="0" result="BackgroundImageFix"/>
<feColorMatrix in="SourceAlpha" type="matrix" values="0 0 0 0 0 0 0 0 0 0 0 0 0 0 0 0 0 0 127 0" result="hardAlpha"/>
<feOffset dy="4"/>
<feGaussianBlur stdDeviation="2"/>
<feColorMatrix type="matrix" values="0 0 0 0 0 0 0 0 0 0 0 0 0 0 0 0 0 0 0.25 0"/>
<feBlend mode="normal" in2="BackgroundImageFix" result="effect1_dropShadow_46_435"/>
<feBlend mode="normal" in="SourceGraphic" in2="effect1_dropShadow_46_435" result="shape"/>
</filter>
<linearGradient id="paint0_linear_46_435" x1="6.84506" y1="-1.13803" x2="20.5013" y2="20.4844" gradientUnits="userSpaceOnUse">
<stop stop-color="#FFAC5F"/>
<stop offset="1" stop-color="#FF4D3C"/>
</linearGradient>
</defs>
</svg>
