<svg width="15" height="15" viewBox="0 0 15 15" fill="none" xmlns="http://www.w3.org/2000/svg">
<path d="M6.10848 11.5774H0.85788" stroke="#A1A1A1" stroke-width="1.3" stroke-linecap="round" stroke-linejoin="round"/>
<path d="M8.45041 3.50027H13.701" stroke="#A1A1A1" stroke-width="1.3" stroke-linecap="round" stroke-linejoin="round"/>
<path fill-rule="evenodd" clip-rule="evenodd" d="M4.77192 3.4552C4.77192 2.37548 3.89012 1.49998 2.80263 1.49998C1.71514 1.49998 0.833344 2.37548 0.833344 3.4552C0.833344 4.53491 1.71514 5.41041 2.80263 5.41041C3.89012 5.41041 4.77192 4.53491 4.77192 3.4552Z" stroke="#A1A1A1" stroke-width="1.3" stroke-linecap="round" stroke-linejoin="round"/>
<path fill-rule="evenodd" clip-rule="evenodd" d="M14.1667 11.5448C14.1667 10.4651 13.2855 9.58958 12.1981 9.58958C11.1099 9.58958 10.2281 10.4651 10.2281 11.5448C10.2281 12.6245 11.1099 13.5 12.1981 13.5C13.2855 13.5 14.1667 12.6245 14.1667 11.5448Z" stroke="#A1A1A1" stroke-width="1.3" stroke-linecap="round" stroke-linejoin="round"/>
</svg>
