<svg width="11" height="10" viewBox="0 0 11 10" fill="none" xmlns="http://www.w3.org/2000/svg">
<path d="M0.872635 0.97863C1.44205 0.347563 2.22338 0 3.07285 0C3.70782 0 4.28932 0.205125 4.80125 0.609628C5.05957 0.81381 5.29363 1.06361 5.5 1.35518C5.70628 1.0637 5.94043 0.81381 6.19883 0.609628C6.71068 0.205125 7.29218 0 7.92715 0C8.77662 0 9.55803 0.347563 10.1274 0.97863C10.6901 1.60232 11 2.45438 11 3.37795C11 4.32854 10.6533 5.19869 9.909 6.11644C9.24315 6.93736 8.28617 7.77073 7.17796 8.73572C6.79955 9.06528 6.37062 9.43882 5.92524 9.83672C5.80758 9.94203 5.6566 10 5.5 10C5.34348 10 5.19242 9.94203 5.07493 9.83689C4.62955 9.43891 4.20036 9.06519 3.82178 8.73547C2.71375 7.77064 1.75677 6.93736 1.09092 6.11635C0.346603 5.19869 0 4.32854 0 3.37787C0 2.45438 0.309929 1.60232 0.872635 0.97863Z" fill="#979EA6"/>
</svg>
