<svg width="36" height="36" viewBox="0 0 36 36" fill="none" xmlns="http://www.w3.org/2000/svg">
<path d="M18 0C14.4399 0 10.9598 1.05568 7.99974 3.03355C5.03966 5.01141 2.73255 7.82263 1.37018 11.1117C0.00779915 14.4008 -0.348661 18.02 0.345873 21.5116C1.04041 25.0033 2.75474 28.2106 5.27209 30.7279C7.78943 33.2453 10.9967 34.9596 14.4884 35.6541C17.98 36.3487 21.5992 35.9922 24.8883 34.6298C28.1774 33.2674 30.9886 30.9603 32.9665 28.0003C34.9443 25.0402 36 21.5601 36 18C36 15.6362 35.5344 13.2956 34.6298 11.1117C33.7253 8.92783 32.3994 6.94353 30.7279 5.27208C29.0565 3.60062 27.0722 2.27475 24.8883 1.37017C22.7044 0.465584 20.3638 0 18 0ZM26.046 11.088L22.446 21.888C22.404 22.0186 22.3315 22.1374 22.2344 22.2344C22.1374 22.3315 22.0186 22.404 21.888 22.446L11.088 26.046C10.9928 26.0632 10.8952 26.0632 10.8 26.046C10.682 26.0474 10.5649 26.0242 10.4564 25.9777C10.3479 25.9312 10.2504 25.8625 10.17 25.776C10.0489 25.6604 9.96406 25.512 9.92571 25.3491C9.88736 25.1861 9.89719 25.0155 9.95401 24.858L13.554 14.058C13.596 13.9274 13.6685 13.8086 13.7656 13.7116C13.8626 13.6145 13.9814 13.542 14.112 13.5L24.912 9.9C25.0699 9.84873 25.2388 9.84211 25.4002 9.88086C25.5615 9.91961 25.7091 10.0022 25.8264 10.1196C25.9438 10.2369 26.0264 10.3845 26.0651 10.5458C26.1039 10.7072 26.0973 10.8762 26.046 11.034V11.088Z" fill="url(#paint0_linear_46_296)"/>
<defs>
<linearGradient id="paint0_linear_46_296" x1="18" y1="0" x2="18" y2="36" gradientUnits="userSpaceOnUse">
<stop stop-color="#FFAC5F"/>
<stop offset="1" stop-color="#FF4D3C"/>
</linearGradient>
</defs>
</svg>
