<svg width="27" height="24" viewBox="0 0 27 24" fill="none" xmlns="http://www.w3.org/2000/svg">
<path d="M2.14192 2.34866C3.53959 0.834092 5.45739 -6.10352e-05 7.54246 -6.10352e-05C9.10101 -6.10352e-05 10.5283 0.492239 11.7849 1.46305C12.4189 1.95309 12.9935 2.55262 13.5 3.25237C14.0063 2.55282 14.5811 1.95309 15.2153 1.46305C16.4717 0.492239 17.899 -6.10352e-05 19.4575 -6.10352e-05C21.5426 -6.10352e-05 23.4606 0.834092 24.8583 2.34866C26.2393 3.84552 27 5.89046 27 8.10705C27 10.3885 26.149 12.4768 24.3221 14.6794C22.6877 16.6497 20.3388 18.6497 17.6186 20.9657C16.6898 21.7567 15.637 22.6532 14.5438 23.6081C14.255 23.8609 13.8844 24 13.5 24C13.1158 24 12.745 23.8609 12.4566 23.6085C11.3634 22.6534 10.31 21.7565 9.38074 20.9651C6.66101 18.6495 4.31207 16.6497 2.67771 14.6792C0.850754 12.4768 0 10.3885 0 8.10684C0 5.89046 0.760735 3.84552 2.14192 2.34866Z" fill="#989A9D"/>
</svg>
