<svg width="40" height="35" viewBox="0 0 40 35" fill="none" xmlns="http://www.w3.org/2000/svg">
<path d="M3.17322 3.4252C5.24384 1.21647 8.08502 0 11.174 0C13.483 0 15.5975 0.717936 17.4591 2.1337C18.3984 2.84833 19.2496 3.72264 20 4.74312C20.7501 3.72294 21.6016 2.84833 22.5412 2.1337C24.4025 0.717936 26.517 0 28.826 0C31.915 0 34.7565 1.21647 36.8271 3.4252C38.873 5.60813 40 8.59032 40 11.8228C40 15.1499 38.7393 18.1954 36.0327 21.4075C33.6115 24.2808 30.1315 27.1975 26.1017 30.575C24.7256 31.7285 23.1659 33.0359 21.5463 34.4285C21.1185 34.7971 20.5695 35 20 35C19.4308 35 18.8815 34.7971 18.4543 34.4291C16.8347 33.0362 15.274 31.7282 13.8974 30.5741C9.86817 27.1972 6.38824 24.2808 3.96698 21.4072C1.26038 18.1954 0 15.1499 0 11.8225C0 8.59032 1.12701 5.60813 3.17322 3.4252Z" fill="url(#paint0_linear_45_2)"/>
<path d="M10.7453 9.95726C11.8841 8.69513 13.4468 8 15.1457 8C16.4156 8 17.5786 8.41025 18.6025 9.21926C19.1191 9.62762 19.5873 10.1272 20 10.7104C20.4126 10.1274 20.8809 9.62762 21.3977 9.21926C22.4214 8.41025 23.5844 8 24.8543 8C26.5532 8 28.1161 8.69513 29.2549 9.95726C30.3801 11.2046 31 12.9088 31 14.7559C31 16.6571 30.3066 18.3974 28.818 20.2329C27.4863 21.8747 25.5723 23.5415 23.3559 25.4714C22.5991 26.1306 21.7412 26.8776 20.8505 27.6734C20.6152 27.8841 20.3132 28 20 28C19.687 28 19.3848 27.8841 19.1499 27.6738C18.2591 26.8778 17.4007 26.1304 16.6436 25.4709C14.4275 23.5413 12.5135 21.8747 11.1818 20.2327C9.69321 18.3974 9 16.6571 9 14.7557C9 12.9088 9.61986 11.2046 10.7453 9.95726Z" fill="white"/>
<defs>
<linearGradient id="paint0_linear_45_2" x1="20" y1="0" x2="20" y2="35" gradientUnits="userSpaceOnUse">
<stop stop-color="#FD814A"/>
<stop offset="1" stop-color="#FC5C4C"/>
</linearGradient>
</defs>
</svg>
