<svg width="31" height="31" viewBox="0 0 31 31" fill="none" xmlns="http://www.w3.org/2000/svg">
<path d="M25.8334 12.9167H5.16671C3.74587 12.9167 2.58337 14.0792 2.58337 15.5C2.58337 16.9209 3.74587 18.0834 5.16671 18.0834H25.8334C27.2542 18.0834 28.4167 16.9209 28.4167 15.5C28.4167 14.0792 27.2542 12.9167 25.8334 12.9167Z" fill="#989A9D"/>
<path d="M5.16671 10.3334H20.6667C22.0875 10.3334 23.25 9.17085 23.25 7.75002C23.25 6.32919 22.0875 5.16669 20.6667 5.16669H5.16671C3.74587 5.16669 2.58337 6.32919 2.58337 7.75002C2.58337 9.17085 3.74587 10.3334 5.16671 10.3334Z" fill="#989A9D"/>
<path d="M20.6667 20.6667H5.16671C3.74587 20.6667 2.58337 21.8292 2.58337 23.25C2.58337 24.6709 3.74587 25.8334 5.16671 25.8334H20.6667C22.0875 25.8334 23.25 24.6709 23.25 23.25C23.25 21.8292 22.0875 20.6667 20.6667 20.6667Z" fill="#989A9D"/>
<circle r="3.5" transform="matrix(-1 0 0 1 26.5 3.5)" fill="#FD814A"/>
</svg>
