<svg width="29" height="30" viewBox="0 0 29 30" fill="none" xmlns="http://www.w3.org/2000/svg">
<g filter="url(#filter0_d_46_439)">
<rect x="4" y="0.882935" width="20.4844" height="20.4844" rx="10.2422" fill="url(#paint0_linear_46_439)"/>
</g>
<path d="M17.9977 6.00403H10.4867C9.45399 6.00403 8.60901 6.84901 8.60901 7.88177V12.5761C8.60901 13.6089 9.45399 14.4539 10.4867 14.4539V15.8622C10.4867 16.2847 11.0031 16.4724 11.2848 16.1908L13.0217 14.4539H17.9977C19.0304 14.4539 19.8754 13.6089 19.8754 12.5761V7.88177C19.8754 6.84901 19.0304 6.00403 17.9977 6.00403ZM15.1811 11.6372H12.3645C12.0828 11.6372 11.895 11.4495 11.895 11.1678C11.895 10.8862 12.0828 10.6984 12.3645 10.6984H15.1811C15.4627 10.6984 15.6505 10.8862 15.6505 11.1678C15.6505 11.4495 15.4627 11.6372 15.1811 11.6372ZM16.12 9.75951H12.3645C12.0828 9.75951 11.895 9.57173 11.895 9.29007C11.895 9.00841 12.0828 8.82064 12.3645 8.82064H16.12C16.4016 8.82064 16.5894 9.00841 16.5894 9.29007C16.5894 9.57173 16.4016 9.75951 16.12 9.75951Z" fill="white"/>
<defs>
<filter id="filter0_d_46_439" x="0" y="0.882935" width="28.4844" height="28.4844" filterUnits="userSpaceOnUse" color-interpolation-filters="sRGB">
<feFlood flood-opacity="0" result="BackgroundImageFix"/>
<feColorMatrix in="SourceAlpha" type="matrix" values="0 0 0 0 0 0 0 0 0 0 0 0 0 0 0 0 0 0 127 0" result="hardAlpha"/>
<feOffset dy="4"/>
<feGaussianBlur stdDeviation="2"/>
<feColorMatrix type="matrix" values="0 0 0 0 0 0 0 0 0 0 0 0 0 0 0 0 0 0 0.25 0"/>
<feBlend mode="normal" in2="BackgroundImageFix" result="effect1_dropShadow_46_439"/>
<feBlend mode="normal" in="SourceGraphic" in2="effect1_dropShadow_46_439" result="shape"/>
</filter>
<linearGradient id="paint0_linear_46_439" x1="6.84506" y1="-0.255091" x2="20.5013" y2="21.3673" gradientUnits="userSpaceOnUse">
<stop stop-color="#FFAC5F"/>
<stop offset="1" stop-color="#FF4D3C"/>
</linearGradient>
</defs>
</svg>
