<svg width="21" height="21" viewBox="0 0 21 21" fill="none" xmlns="http://www.w3.org/2000/svg">
<path d="M4.22917 9.09417C5.90917 12.3958 8.61 15.0967 11.9175 16.7767L14.4842 14.2042C14.805 13.8833 15.2658 13.79 15.6683 13.9183C16.975 14.35 18.3808 14.5833 19.8333 14.5833C20.4808 14.5833 21 15.1025 21 15.75V19.8333C21 20.4808 20.4808 21 19.8333 21C8.87833 21 0 12.1217 0 1.16667C0 0.519167 0.525 0 1.16667 0H5.25C5.8975 0 6.41667 0.519167 6.41667 1.16667C6.41667 2.61917 6.65 4.025 7.08167 5.33167C7.21 5.73417 7.11667 6.195 6.79583 6.51583L4.22917 9.09417Z" fill="#9C9086"/>
</svg>
