<svg width="153" height="131" viewBox="0 0 153 131" fill="none" xmlns="http://www.w3.org/2000/svg">
<path d="M114.625 54.5834C123.665 54.5834 131 47.2487 131 38.2084C131 29.168 123.665 21.8334 114.625 21.8334C105.585 21.8334 98.25 29.168 98.25 38.2084C98.25 47.2487 105.585 54.5834 114.625 54.5834Z" fill="url(#paint0_linear_249_733)"/>
<path d="M143.281 0H9.55208C4.23021 0 0 4.33255 0 9.65443V121.346C0 126.667 4.23021 131 9.55208 131H143.281C148.603 131 152.833 126.667 152.833 121.346V9.65443C152.833 4.33255 148.603 0 143.281 0ZM108.109 67.4445C107.086 66.2505 105.516 65.3294 103.742 65.3294C102.003 65.3294 100.774 66.1482 99.3758 67.274L92.9964 72.6641C91.6659 73.6193 90.6083 74.2675 89.0732 74.2675C87.6062 74.2675 86.2758 73.7216 85.3206 72.8688C84.9794 72.5617 84.3654 71.9818 83.8536 71.4701L65.5 51.6154C64.1354 50.0461 62.0885 49.0568 59.8029 49.0568C57.5172 49.0568 55.4021 50.1826 54.0716 51.7177L10.9167 103.777V14.9081C11.2578 12.5883 13.0659 10.9167 15.3857 10.9167H137.414C139.767 10.9167 141.678 12.6565 141.814 15.0104L141.917 103.845L108.109 67.4445Z" fill="url(#paint1_linear_249_733)"/>
<defs>
<linearGradient id="paint0_linear_249_733" x1="114.625" y1="21.8334" x2="114.625" y2="54.5834" gradientUnits="userSpaceOnUse">
<stop stop-color="#FD814A"/>
<stop offset="1" stop-color="#FC5C4C"/>
</linearGradient>
<linearGradient id="paint1_linear_249_733" x1="76.4167" y1="0" x2="76.4167" y2="131" gradientUnits="userSpaceOnUse">
<stop stop-color="#FD814A"/>
<stop offset="1" stop-color="#FC5C4C"/>
</linearGradient>
</defs>
</svg>
