<svg width="32" height="34" viewBox="0 0 32 34" fill="none" xmlns="http://www.w3.org/2000/svg">
<path d="M30.1566 19.4723L29.5106 19.1031C28.7417 18.6648 28.2824 17.8779 28.2824 17C28.2824 16.1221 28.7417 15.3352 29.5106 14.8969L30.1566 14.5277C31.9202 13.5199 32.5233 11.2953 31.5051 9.55157L30.2769 7.44843C29.2612 5.70836 27.0026 5.11093 25.2439 6.11514L24.5978 6.48307C23.829 6.92264 22.9091 6.92264 22.1415 6.48307C21.3727 6.0435 20.9133 5.25786 20.9133 4.37993V3.64286C20.9133 1.63443 19.2602 0 17.2288 0H14.7724C12.741 0 11.0879 1.63443 11.0879 3.64286V4.38114C11.0879 5.25907 10.6286 6.04471 9.85973 6.48429C9.09089 6.92264 8.17222 6.92386 7.40338 6.48429L6.75736 6.11514C4.99861 5.11093 2.73999 5.70836 1.72306 7.44843L0.494886 9.55157C-0.523273 11.2953 0.0797621 13.5211 1.84342 14.5277L2.49067 14.8969C3.25951 15.3352 3.71885 16.1221 3.71885 17C3.71885 17.8779 3.25951 18.6648 2.49067 19.1031L1.84465 19.4723C0.0809902 20.4789 -0.522044 22.7047 0.496114 24.4484L1.72429 26.5516C2.74122 28.2916 4.99984 28.8891 6.75736 27.8849L7.40338 27.5169C8.17222 27.0761 9.09089 27.0786 9.85973 27.5169C10.6286 27.9565 11.0879 28.7421 11.0879 29.6201V30.3571C11.0879 32.3656 12.741 34 14.7724 34H17.2288C19.2602 34 20.9133 32.3656 20.9133 30.3571V29.6189C20.9133 28.7409 21.3727 27.9553 22.1415 27.5157C22.9091 27.0774 23.829 27.0761 24.5978 27.5157L25.2439 27.8849C27.0026 28.8879 29.2612 28.2904 30.2769 26.5516L31.5051 24.4484C32.5233 22.7047 31.9202 20.4789 30.1566 19.4723ZM16.0006 23.0714C12.6145 23.0714 9.85973 20.3478 9.85973 17C9.85973 13.6522 12.6145 10.9286 16.0006 10.9286C19.3867 10.9286 22.1415 13.6522 22.1415 17C22.1415 20.3478 19.3867 23.0714 16.0006 23.0714Z" fill="url(#paint0_linear_114_366)"/>
<defs>
<linearGradient id="paint0_linear_114_366" x1="16" y1="0" x2="16" y2="34" gradientUnits="userSpaceOnUse">
<stop stop-color="#FD814A"/>
<stop offset="1" stop-color="#FC5C4C"/>
</linearGradient>
</defs>
</svg>
