<svg width="24" height="26" viewBox="0 0 24 26" fill="none" xmlns="http://www.w3.org/2000/svg">
<path d="M22.6174 14.8906L22.1329 14.6083C21.5563 14.2731 21.2118 13.6714 21.2118 13C21.2118 12.3286 21.5563 11.7269 22.1329 11.3917L22.6174 11.1094C23.9402 10.3387 24.3925 8.63757 23.6288 7.30414L22.7077 5.69586C21.9459 4.36521 20.252 3.90836 18.9329 4.67629L18.4484 4.95764C17.8718 5.29379 17.1818 5.29379 16.6061 4.95764C16.0295 4.6215 15.685 4.02071 15.685 3.34936V2.78571C15.685 1.24986 14.4451 0 12.9216 0H11.0793C9.55577 0 8.31593 1.24986 8.31593 2.78571V3.35029C8.31593 4.02164 7.97143 4.62243 7.3948 4.95857C6.81817 5.29379 6.12916 5.29471 5.55253 4.95857L5.06802 4.67629C3.74896 3.90836 2.05499 4.36521 1.2923 5.69586L0.371164 7.30414C-0.392454 8.63757 0.0598216 10.3396 1.38257 11.1094L1.868 11.3917C2.44463 11.7269 2.78914 12.3286 2.78914 13C2.78914 13.6714 2.44463 14.2731 1.868 14.6083L1.38349 14.8906C0.0607427 15.6604 -0.391533 17.3624 0.372085 18.6959L1.29322 20.3041C2.05592 21.6348 3.74988 22.0916 5.06802 21.3237L5.55253 21.0424C6.12916 20.7053 6.81817 20.7071 7.3948 21.0424C7.97143 21.3785 8.31593 21.9793 8.31593 22.6506V23.2143C8.31593 24.7501 9.55577 26 11.0793 26H12.9216C14.4451 26 15.685 24.7501 15.685 23.2143V22.6497C15.685 21.9784 16.0295 21.3776 16.6061 21.0414C17.1818 20.7062 17.8718 20.7053 18.4484 21.0414L18.9329 21.3237C20.252 22.0907 21.9459 21.6339 22.7077 20.3041L23.6288 18.6959C24.3925 17.3624 23.9402 15.6604 22.6174 14.8906ZM12.0005 17.6429C9.4609 17.6429 7.3948 15.5601 7.3948 13C7.3948 10.4399 9.4609 8.35714 12.0005 8.35714C14.54 8.35714 16.6061 10.4399 16.6061 13C16.6061 15.5601 14.54 17.6429 12.0005 17.6429Z" fill="#989A9D"/>
</svg>
