<svg width="17" height="14" viewBox="0 0 17 14" fill="none" xmlns="http://www.w3.org/2000/svg">
<path d="M6.93878 12.95C6.93878 12.9792 6.94239 13.0521 6.94962 13.1687C6.95685 13.2854 6.95865 13.382 6.95504 13.4586C6.95142 13.5352 6.94058 13.6208 6.92251 13.7156C6.90444 13.8104 6.8683 13.8815 6.81409 13.9289C6.75989 13.9763 6.6858 14 6.59184 14H3.12245C2.26233 14 1.52689 13.6919 0.916135 13.0758C0.305378 12.4596 0 11.7177 0 10.85V3.15C0 2.28229 0.305378 1.54036 0.916135 0.924219C1.52689 0.308073 2.26233 0 3.12245 0H6.59184C6.6858 0 6.76711 0.0346354 6.83578 0.103906C6.90444 0.173177 6.93878 0.255208 6.93878 0.35C6.93878 0.379167 6.94239 0.452083 6.94962 0.56875C6.95685 0.685417 6.95865 0.782031 6.95504 0.858594C6.95142 0.935156 6.94058 1.02083 6.92251 1.11563C6.90444 1.21042 6.8683 1.28151 6.81409 1.32891C6.75989 1.3763 6.6858 1.4 6.59184 1.4H3.12245C2.64541 1.4 2.23703 1.57135 1.89732 1.91406C1.55761 2.25677 1.38776 2.66875 1.38776 3.15V10.85C1.38776 11.3313 1.55761 11.7432 1.89732 12.0859C2.23703 12.4286 2.64541 12.6 3.12245 12.6H6.5051L6.62978 12.6109L6.75446 12.6438L6.8412 12.7039L6.91709 12.8023L6.93878 12.95ZM17 7C17 7.18958 16.9313 7.35365 16.794 7.49219L10.896 13.4422C10.7587 13.5807 10.5961 13.65 10.4082 13.65C10.2202 13.65 10.0576 13.5807 9.92028 13.4422C9.78295 13.3036 9.71429 13.1396 9.71429 12.95V9.8H4.85714C4.66922 9.8 4.50659 9.73073 4.36926 9.59219C4.23193 9.45365 4.16327 9.28958 4.16327 9.1V4.9C4.16327 4.71042 4.23193 4.54635 4.36926 4.40781C4.50659 4.26927 4.66922 4.2 4.85714 4.2H9.71429V1.05C9.71429 0.860417 9.78295 0.696354 9.92028 0.557813C10.0576 0.419271 10.2202 0.35 10.4082 0.35C10.5961 0.35 10.7587 0.419271 10.896 0.557813L16.794 6.50781C16.9313 6.64635 17 6.81042 17 7Z" fill="#F7F7F8"/>
</svg>
