<svg width="12" height="12" viewBox="0 0 12 12" fill="none" xmlns="http://www.w3.org/2000/svg">
<path d="M4.68107 4.579C4.68107 4.579 3.10107 4.754 2.04707 4.871C1.95207 4.8825 1.86807 4.946 1.83657 5.0425C1.80507 5.139 1.83657 5.2395 1.90657 5.303C2.68957 6.0175 3.86607 7.0875 3.86607 7.0875C3.86507 7.0875 3.54307 8.644 3.32907 9.6825C3.31107 9.7765 3.34507 9.876 3.42707 9.9355C3.50857 9.995 3.61357 9.996 3.69607 9.9495C4.61807 9.4255 5.99907 8.6375 5.99907 8.6375C5.99907 8.6375 7.38057 9.4255 8.30107 9.95C8.38507 9.996 8.49007 9.995 8.57157 9.9355C8.65357 9.876 8.68757 9.7765 8.66907 9.683C8.45507 8.644 8.13357 7.0875 8.13357 7.0875C8.13357 7.0875 9.31007 6.0175 10.0931 5.3045C10.1631 5.239 10.1941 5.1385 10.1631 5.0425C10.1321 4.9465 10.0481 4.883 9.95307 4.872C8.89907 4.754 7.31857 4.579 7.31857 4.579C7.31857 4.579 6.66357 3.13 6.22707 2.164C6.18607 2.0775 6.10007 2.017 5.99907 2.017C5.89807 2.017 5.81157 2.078 5.77257 2.164C5.33557 3.13 4.68107 4.579 4.68107 4.579Z" fill="#FD814A"/>
</svg>
