<svg width="123" height="123" viewBox="0 0 123 123" fill="none" xmlns="http://www.w3.org/2000/svg">
<g clip-path="url(#clip0_275_1242)">
<path d="M123.384 9.99377V94.5563H118.772C119.156 93.4032 119.156 91.8656 119.156 90.7125C119.156 85.7157 118.003 81.4875 115.697 77.6438V17.6813H7.6875V86.4844H13.0688L38.0531 44.5875L53.0438 69.1875L64.9594 53.4281L76.4906 68.4188C74.1844 69.9563 72.2625 71.8782 70.725 73.8L64.9594 66.1125L52.275 82.6406L38.0531 59.5781L22.2938 85.7156H65.7281C65.7281 86.1 65.7281 86.1 65.7281 86.4844C65.3438 87.6375 65.3438 89.175 65.3438 90.3281C65.3438 91.4813 65.3438 92.25 65.3438 93.4031C65.3438 93.7875 65.3438 93.7875 65.3438 94.1719H0V9.99377H123.384ZM109.931 36.1313C109.931 43.4344 103.781 49.5844 96.4781 49.5844C89.175 49.5844 83.025 43.4344 83.025 36.1313C83.025 28.8281 89.175 22.6782 96.4781 22.6782C103.781 22.6782 109.931 29.2125 109.931 36.1313ZM102.244 36.1313C102.244 33.0563 99.5531 30.3657 96.4781 30.3657C93.4031 30.3657 90.7125 33.0563 90.7125 36.1313C90.7125 39.2063 93.4031 41.8969 96.4781 41.8969C99.5531 41.8969 102.244 39.5906 102.244 36.1313Z" fill="url(#paint0_linear_275_1242)"/>
<path d="M96.0938 86.4844H103.781V94.1719H96.0938V101.859H88.4062V94.1719H80.7188V86.4844H88.4062V78.7969H96.0938V86.4844ZM114.544 90.3281C114.544 103.013 104.55 113.006 91.8656 113.006C79.1812 113.006 69.1875 103.013 69.1875 90.3281C69.1875 77.6438 79.1812 67.65 91.8656 67.65C104.55 67.65 114.544 78.0281 114.544 90.3281ZM106.856 90.3281C106.856 82.2563 100.322 75.3375 91.8656 75.3375C83.4094 75.3375 76.875 81.8719 76.875 90.3281C76.875 98.7844 83.4094 105.319 91.8656 105.319C100.322 105.319 106.856 99.1688 106.856 90.3281Z" fill="url(#paint1_linear_275_1242)"/>
</g>
<defs>
<linearGradient id="paint0_linear_275_1242" x1="61.6922" y1="9.99377" x2="61.6922" y2="94.5563" gradientUnits="userSpaceOnUse">
<stop stop-color="#FD814A"/>
<stop offset="1" stop-color="#FC5C4C"/>
</linearGradient>
<linearGradient id="paint1_linear_275_1242" x1="91.8656" y1="67.65" x2="91.8656" y2="113.006" gradientUnits="userSpaceOnUse">
<stop stop-color="#FD814A"/>
<stop offset="1" stop-color="#FC5C4C"/>
</linearGradient>
<clipPath id="clip0_275_1242">
<rect width="123" height="123" fill="white"/>
</clipPath>
</defs>
</svg>
